<svg xmlns="http://www.w3.org/2000/svg" xmlns:xlink="http://www.w3.org/1999/xlink" style="isolation: isolate;" width="20.5" height="20.479000091552734"><rect id="backgroundrect" width="100%" height="100%" x="0" y="0" fill="none" stroke="none"/><defs><clipPath id="_clipPath_BBRuGaomYLKjPKjOOHpnNdPxBnLPFPyk"><rect width="20.5" height="20.479000091552734" id="svg_1"/></clipPath></defs><g class="currentLayer"><title>Layer 1</title><path fill="#ffffff" stroke-dashoffset="" fill-rule="nonzero" marker-start="" marker-mid="" marker-end="" id="svg_6" d="M14.92239311197909,13.168884058569589 C14.279822855588137,12.865210611311497 14.023248866287162,12.030611401959888 14.023248866287162,12.030611401959888 S13.73375166596972,12.21965315058408 13.73375166596972,11.688727388490506 S14.023248866287162,12.030611401959888 14.312746066604674,9.980648042765381 C14.312746066604674,9.980648042765381 15.115391245524123,9.714514800907665 14.9553163229956,7.513720259300172 L14.762318189450582,7.513720259300172 C14.762318189450582,7.513720259300172 15.244245881743836,5.160753813658218 14.762318189450582,4.363694809707049 C14.279822855588137,3.566635805756057 14.087392363612423,3.0357100436625686 13.026470270684285,2.655615463981853 S12.352112086415346,2.3512716559131164 11.580687193804678,2.390152582935052 C10.80926230119394,2.4283631491463495 10.166124403233866,2.9210783450284907 10.166124403233866,3.186541226075427 C10.166124403233866,3.186541226075427 9.684196710940654,3.2247517922867246 9.49176621896487,3.4526744679329937 C9.298768085419908,3.6805971435791065 8.97748295722431,4.7424486677662685 8.97748295722431,5.008581909623835 S9.13812552132218,7.058545268818563 9.298768085419908,7.437969487688292 L9.107472876582648,7.513720259300172 C8.946830312484977,9.714514800907665 9.75004313297363,9.980648042765381 9.75004313297363,9.980648042765381 C10.038972691721796,12.030611401959888 10.328469892039294,11.15780162639691 10.328469892039294,11.688727388490506 S10.038972691721796,12.030611401959888 10.038972691721796,12.030611401959888 S9.782398702420835,12.865210611311497 9.139828446029924,13.168884058569589 C8.497258189639126,13.471887145016979 4.9301985684723775,15.103545358319579 4.6401337265856455,15.445429371788961 C4.35006888469897,15.78798374606891 4.3829920957153945,17.38143139316049 4.3829920957153945,17.38143139316049 L19.67922946229362,17.38143139316049 C19.67922946229362,17.38143139316049 19.71272031487935,15.78798374606891 19.422655472992602,15.445429371788961 C19.13202298953665,15.103545358319579 15.564963368370002,13.471887145016979 14.92239311197909,13.168884058569589 zM7.843902743432295,13.053581999125 C7.787706228076615,12.932917053194679 7.75989179118335,12.845770147800494 7.75989179118335,12.845770147800494 S7.514670633267357,13.005986381563645 7.514670633267357,12.556174277567607 S7.75989179118335,12.845770147800494 8.005112949099342,11.108865287214115 C8.005112949099342,11.108865287214115 8.68571519063002,10.883624054810781 8.549481214010001,9.018009918565362 L8.386000442066134,9.018009918565362 C8.386000442066134,9.018009918565362 8.467173186468784,8.621826679427357 8.520531493978226,8.12374859705917 C8.518260927701249,7.917277467356129 8.523937343393754,7.697399121438593 8.541534232040533,7.456069229577949 L8.563104611672003,7.170495524209343 C8.551184138717744,6.8406780053330465 8.502366963762299,6.541026722939435 8.386000442066134,6.348633170261472 C7.977298512206076,5.673579833862249 7.813817740262067,5.223097369055594 6.915241136139372,4.901324179907881 C6.01666453201679,4.579550990760332 6.343058434335447,4.643235267779048 5.689702988128815,4.676082947504554 C5.035779900352821,4.70826026641938 4.490843993872929,5.125895051500542 4.490843993872929,5.351806644714571 C4.490843993872929,5.351806644714571 4.082142064012942,5.383983963629376 3.918661292069004,5.577047877117906 C3.764830426802206,5.758715656824123 3.518473985747761,6.557115382396731 3.488956624146766,6.8406780053330465 L3.488956624146766,7.029049393146572 C3.515635777901508,7.4667950025494605 3.6354081490133012,8.670763018610188 3.755180520124995,8.954325641546504 L3.5928350313195665,9.018680279376056 C3.4571686962687806,10.884294415621554 4.13720329623024,11.109535648024874 4.13720329623024,11.109535648024874 C4.382424454146175,12.846440508611195 4.627645612062111,12.107032534382427 4.627645612062111,12.55684463837845 S4.382424454146175,12.846440508611195 4.382424454146175,12.846440508611195 S4.165017733123449,13.55501188554669 3.620081826643485,13.811089715243384 C3.585455690919261,13.827178374700765 3.5411796485177547,13.848629920643965 3.4883889825775327,13.872762909829987 L3.4883889825775327,17.38143139316049 L3.814782884896246,17.38143139316049 C3.7983212793880057,16.52471027705505 3.858491285728519,15.419285300170714 4.238243495556674,14.972154639417681 C4.440323894209683,14.734176551610638 5.102761605524364,14.342685838147723 7.843902743432295,13.053581999125 zM20.51933898478353,6.982794497206676 C20.496633322013537,6.729398110752783 20.447248505488815,6.503486517538747 20.353587646562502,6.348633170261472 C19.945453358271862,5.672909473051533 19.781404944758577,5.223097369055594 18.88339598220516,4.901324179907881 C17.98425173651323,4.579550990760332 18.311213280401233,4.643235267779048 17.65729019262531,4.676082947504554 C17.003934746418594,4.70826026641938 16.4589988399387,5.125895051500542 16.4589988399387,5.351806644714571 C16.4589988399387,5.351806644714571 16.050864551647948,5.383983963629376 15.886816138134776,5.577047877117906 C15.732985272868063,5.759386017634952 15.484358265536514,6.563818990503977 15.456543828643262,6.844700170197449 L15.475276000428522,6.844700170197449 L15.520687325968481,7.456739590388615 C15.53204015735352,7.611592937665947 15.53317544049203,7.7490169038645575 15.536013648338297,7.889122313305762 C15.587101389570762,8.335582613248107 15.655218377880772,8.794109407783338 15.72333536619071,8.954325641546504 L15.560989877385282,9.018680279376056 C15.42532354233451,10.884294415621554 16.105925783865246,11.109535648024874 16.105925783865246,11.109535648024874 C16.35114694178118,12.846440508611195 16.59580045812794,12.107032534382427 16.59580045812794,12.55684463837845 S16.35057930021196,12.846440508611195 16.35057930021196,12.846440508611195 S16.32049429704165,12.941631743734092 16.258053724424215,13.073022462635976 C18.965704009746375,14.346708003012033 19.622465305368635,14.735517273232077 19.822275137744597,14.972825000228752 C20.20259498914203,15.419955660981643 20.26219735391328,16.52471027705505 20.245735748405025,17.382101753971284 L20.518203701645007,17.382101753971284 L20.518203701645007,13.825167292268574 C20.509121436537015,13.821145127404236 20.496633322013537,13.815111880107409 20.488686340044012,13.811089715243384 C19.944318075133282,13.554341524736031 19.726343712541308,12.846440508611195 19.726343712541308,12.846440508611195 S19.48055491305611,13.00665674237429 19.48055491305611,12.55684463837845 S19.726343712541308,12.846440508611195 19.970997228888038,11.109535648024874 C19.970997228888038,11.109535648024874 20.427381050565018,10.956023022369074 20.517636060075773,9.875401395481575 L20.517636060075773,9.052868680722867 C20.517068418506568,9.040802186130136 20.517068418506568,9.03074677396932 20.515933135368044,9.018680279376056 L20.351884721854816,9.018680279376056 C20.351884721854816,9.018680279376056 20.47392765924363,8.422059157831448 20.517636060075773,7.771138810618268 L20.517636060075773,6.982794497206676 L20.51933898478353,6.982794497206676 z" style="color: rgb(0, 0, 0);" class="" fill-opacity="1"/></g></svg>